<svg width="1024" height="1024" viewBox="0 0 1024 1024" fill="none" xmlns="http://www.w3.org/2000/svg">
<rect width="1024" height="1024" rx="512" fill="white"/>
<path fill-rule="evenodd" clip-rule="evenodd" d="M380.572 218.669C403.716 368.999 403.716 368.999 554.046 392.254C403.768 415.391 403.716 415.729 380.596 565.792C380.588 565.845 380.58 565.897 380.572 565.949C357.317 415.509 357.317 415.509 206.987 392.254C357.317 368.999 357.317 368.999 380.572 218.669ZM392.254 652.135C655.662 611.356 655.662 611.356 696.441 347.838C736.117 604.633 737.109 611.246 980.789 649.049C993.463 605.515 1000.3 559.557 1000.3 512.055C1000.3 242.255 781.745 23.7036 511.945 23.7036C242.255 23.7036 23.7037 242.255 23.7037 512.055C23.7037 781.745 242.255 1000.3 511.945 1000.3C731.819 1000.3 917.637 855.146 978.915 655.441C736.999 692.914 736.007 700.629 696.441 956.211C655.662 692.803 655.662 692.803 392.254 652.135Z" fill="#1C4587"/>
</svg>
