<svg width="1024" height="1024" viewBox="0 0 1024 1024" fill="none" xmlns="http://www.w3.org/2000/svg">
<rect width="1024" height="1024" rx="512" fill="white"/>
<path fill-rule="evenodd" clip-rule="evenodd" d="M374.192 204.43C398.46 362.058 398.46 362.058 556.087 386.441C398.514 410.701 398.46 411.056 374.217 568.404C374.208 568.458 374.2 568.513 374.192 568.568C349.808 410.825 349.808 410.825 192.181 386.441C349.808 362.058 349.808 362.058 374.192 204.43ZM386.441 658.938C662.636 616.18 662.636 616.18 705.394 339.87C746.997 609.13 748.037 616.064 1003.55 655.702C1016.84 610.055 1024 561.865 1024 512.058C1024 229.161 794.839 0 511.942 0C229.161 0 0 229.161 0 512.058C0 794.839 229.161 1024 511.942 1024C742.49 1024 937.328 871.804 1001.58 662.405C747.921 701.696 746.881 709.785 705.394 977.775C662.636 701.58 662.636 701.58 386.441 658.938Z" fill="#1C4587"/>
</svg>
